<?xml version="1.0" standalone="no"?>
<!DOCTYPE svg PUBLIC "-//W3C//DTD SVG 20010904//EN"
 "http://www.w3.org/TR/2001/REC-SVG-20010904/DTD/svg10.dtd">
<svg version="1.0" xmlns="http://www.w3.org/2000/svg"
 width="717.000000pt" height="720.000000pt" viewBox="0 0 717.000000 720.000000"
 preserveAspectRatio="xMidYMid meet">

<g transform="translate(0.000000,720.000000) scale(0.100000,-0.100000)"
fill="#000000" stroke="none">
<path d="M2 5548 c1 -909 3 -1637 5 -1618 19 204 63 452 113 632 33 119 38
153 10 68 -11 -30 -19 -46 -19 -35 1 26 37 125 39 105 1 -14 19 28 34 80 6 20
5 22 -4 10 -10 -13 -11 -12 -6 3 3 10 6 24 6 30 0 9 3 8 8 0 5 -8 25 29 53
100 55 139 56 142 25 87 -31 -55 -33 -49 -5 14 11 26 24 44 28 42 4 -3 13 6
20 20 16 35 13 44 -4 14 -17 -30 -20 -21 -4 14 7 14 16 23 20 20 5 -3 6 1 3 9
-3 8 9 42 25 76 30 58 48 81 34 44 -8 -23 1 -14 17 16 9 17 9 21 0 16 -6 -4 3
21 20 54 17 34 35 59 40 56 5 -3 12 0 16 6 4 8 3 9 -4 5 -7 -4 -12 -2 -12 3 0
6 8 11 18 12 9 0 12 3 5 5 -12 5 18 67 40 81 6 3 7 1 3 -5 -4 -7 -5 -12 -2
-12 2 0 19 24 38 53 49 78 53 85 23 52 -14 -17 -22 -21 -16 -10 5 11 20 31 33
45 13 14 19 19 13 10 -9 -13 -8 -13 7 -1 10 7 15 17 12 23 -8 13 35 73 60 84
12 5 20 16 18 25 -1 9 13 31 30 50 18 20 26 26 18 15 -37 -50 -40 -58 -8 -21
20 22 34 45 31 51 -2 6 4 17 14 25 17 13 17 13 3 -6 -15 -20 -14 -20 8 -1 23
20 30 32 12 21 -21 -13 -9 8 25 43 19 20 35 40 35 45 0 4 5 7 11 7 13 0 365
341 362 351 -1 4 25 29 59 55 77 61 98 76 98 71 0 -2 -34 -31 -75 -63 -41 -32
-73 -60 -71 -62 2 -2 44 29 92 68 124 100 354 253 509 337 427 234 910 380
1405 426 19 2 -709 4 -1618 5 l-1652 2 2 -1652z m3063 1631 c-51 -10 -92 -10
-50 1 17 4 44 8 60 8 25 0 24 -2 -10 -9z m-179 -30 c-49 -10 -91 -17 -93 -15
-3 2 22 9 54 16 32 6 63 13 68 15 6 2 21 3 35 3 14 0 -15 -9 -64 -19z m-119
-25 c-3 -3 -12 -4 -19 -1 -8 3 -5 6 6 6 11 1 17 -2 13 -5z m-57 -14 c-34 -11
-60 -11 -35 0 11 5 29 8 40 8 16 0 15 -2 -5 -8z m-115 -31 c-32 -10 -61 -16
-63 -14 -5 5 88 34 108 33 8 0 -12 -8 -45 -19z m-78 -25 c-3 -3 -12 -4 -19 -1
-8 3 -5 6 6 6 11 1 17 -2 13 -5z m-52 -14 c-27 -12 -43 -12 -25 0 8 5 22 9 30
9 10 0 8 -3 -5 -9z m-55 -20 c-8 -5 -19 -10 -25 -10 -5 0 -3 5 5 10 8 5 20 10
25 10 6 0 3 -5 -5 -10z m-70 -25 c-19 -7 -60 -23 -90 -35 -30 -12 -51 -18 -47
-13 12 12 139 62 157 62 8 0 -1 -6 -20 -14z m-180 -69 c0 -2 -7 -7 -16 -10 -8
-3 -12 -2 -9 4 6 10 25 14 25 6z m-60 -31 c-14 -8 -29 -14 -35 -14 -5 0 1 6
15 14 14 8 30 14 35 14 6 0 -1 -6 -15 -14z m-51 -19 c-10 -9 -129 -66 -129
-61 0 6 111 64 124 65 5 0 7 -2 5 -4z m-139 -71 c0 -2 -13 -11 -30 -20 -38
-19 -40 -11 -2 9 31 17 32 18 32 11z m-70 -39 c0 -2 -7 -7 -16 -10 -8 -3 -12
-2 -9 4 6 10 25 14 25 6z m-71 -39 c-2 -1 -13 -9 -24 -17 -19 -14 -19 -14 -6
3 7 9 18 17 24 17 6 0 8 -1 6 -3z m-74 -46 c-20 -17 -165 -111 -165 -106 0 2
37 29 82 60 77 51 105 67 83 46z m-180 -119 c-32 -27 -95 -73 -95 -68 0 6 90
76 98 76 3 0 2 -4 -3 -8z m-355 -289 c-45 -43 -88 -80 -94 -82 -6 -2 -9 -2 -6
1 47 45 174 158 178 158 3 0 -32 -35 -78 -77z m-176 -173 c-43 -44 -80 -80
-83 -80 -3 0 13 19 35 43 23 23 56 59 74 80 18 20 37 37 42 37 5 0 -26 -36
-68 -80z m-274 -324 c0 -3 -4 -8 -10 -11 -5 -3 -10 -1 -10 4 0 6 5 11 10 11 6
0 10 -2 10 -4z m-160 -226 c-6 -11 -13 -20 -16 -20 -2 0 0 9 6 20 6 11 13 20
16 20 2 0 0 -9 -6 -20z m-329 -646 c-11 -27 -20 -45 -20 -39 -1 14 31 96 36
92 2 -3 -5 -26 -16 -53z m-60 -165 c-5 -13 -10 -19 -10 -12 -1 15 10 45 15 40
3 -2 0 -15 -5 -28z m-67 -238 c-4 -17 -9 -30 -11 -27 -3 2 -2 19 2 36 9 41 17
33 9 -9z m-17 -63 c-3 -8 -6 -5 -6 6 -1 11 2 17 5 13 3 -3 4 -12 1 -19z m-18
-92 c-7 -31 -14 -54 -16 -52 -3 2 1 30 7 61 6 31 14 55 16 52 2 -2 -1 -29 -7
-61z m-26 -117 c-6 -6 -7 3 -4 23 4 28 6 29 9 9 2 -13 0 -27 -5 -32z m-6 -51
c-3 -7 -5 -2 -5 12 0 14 2 19 5 13 2 -7 2 -19 0 -25z m-10 -65 c-3 -10 -5 -2
-5 17 0 19 2 27 5 18 2 -10 2 -26 0 -35z"/>
<path d="M3945 7189 c546 -54 1113 -249 1553 -535 85 -56 116 -69 72 -33 l-25
21 25 -14 c14 -9 25 -20 25 -26 0 -5 36 -36 80 -67 146 -105 268 -208 435
-370 91 -88 149 -141 130 -119 -19 22 0 4 43 -40 43 -45 83 -90 89 -101 l11
-20 -24 20 -24 20 19 -22 c11 -13 25 -23 31 -23 15 0 48 -47 41 -59 -3 -5 4
-17 17 -27 l22 -19 -20 25 -20 25 28 -24 c27 -24 38 -49 15 -35 -7 5 -8 3 -4
-5 5 -7 10 -10 13 -7 6 5 33 -18 33 -29 0 -3 -5 -3 -12 1 -7 4 -8 3 -4 -5 4
-6 11 -9 15 -7 8 5 51 -47 51 -61 0 -4 -12 6 -26 22 l-26 30 22 -32 c12 -18
27 -33 34 -33 15 0 80 -106 72 -119 -4 -5 -1 -13 5 -17 8 -5 9 -3 4 6 -5 9 -4
11 4 6 16 -10 43 -65 37 -75 -3 -4 1 -17 10 -27 14 -18 14 -17 4 6 l-11 25 20
-25 c12 -14 19 -33 17 -43 -2 -9 0 -15 4 -12 5 3 11 1 15 -5 3 -5 1 -10 -5
-10 -7 0 -4 -12 6 -30 10 -16 20 -27 22 -25 3 3 -1 11 -8 20 -7 9 -11 18 -8
20 9 9 70 -116 64 -131 -4 -10 -2 -13 6 -8 8 5 9 2 5 -10 -4 -10 -3 -15 3 -11
11 7 51 -75 115 -240 50 -129 62 -168 45 -145 -10 12 -11 12 -5 -5 84 -257
163 -628 178 -845 2 -25 4 699 5 1608 l2 1652 -1652 -1 c-909 -1 -1617 -6
-1573 -10z m168 -6 c-7 -2 -21 -2 -30 0 -10 3 -4 5 12 5 17 0 24 -2 18 -5z
m161 -24 c23 -10 -14 -5 -94 11 -42 9 -41 9 14 4 33 -3 69 -10 80 -15z m126
-25 c100 -23 142 -35 139 -39 -2 -2 -56 10 -119 25 -63 16 -108 29 -100 29 8
0 44 -6 80 -15z m205 -54 c25 -11 -1 -11 -35 0 -20 6 -21 8 -5 8 11 0 29 -3
40 -8z m119 -36 c26 -9 45 -18 43 -20 -2 -2 -28 5 -58 15 -30 11 -49 20 -43
20 6 1 32 -6 58 -15z m217 -82 c80 -33 184 -83 139 -68 -47 16 -253 105 -244
106 6 0 53 -17 105 -38z m249 -112 c44 -22 80 -42 80 -45 0 -5 -159 72 -169
81 -13 12 19 -1 89 -36z m170 -95 c0 -3 -18 4 -40 15 -22 11 -40 23 -40 25 0
3 18 -4 40 -15 22 -11 40 -23 40 -25z m118 -67 c34 -22 62 -42 62 -45 0 -3
-12 3 -27 13 -16 10 -54 33 -85 52 -32 19 -58 36 -58 39 0 5 35 -14 108 -59z
m275 -190 c42 -33 77 -61 77 -63 0 -5 -200 141 -215 158 -15 15 50 -29 138
-95z m194 -161 c4 -7 -16 8 -45 31 -29 24 -55 49 -59 55 -4 7 16 -8 45 -31 29
-24 55 -49 59 -55z m191 -172 c34 -33 62 -63 62 -68 0 -5 -31 22 -69 59 -37
38 -91 91 -120 117 -28 26 -51 51 -51 55 0 6 27 -19 178 -163z m891 -1465 c0
-8 -7 1 -14 20 -18 46 -17 64 0 25 8 -16 14 -37 14 -45z m8 -42 c-3 -8 -6 -5
-6 6 -1 11 2 17 5 13 3 -3 4 -12 1 -19z m22 -58 c0 -10 -3 -8 -9 5 -12 27 -12
43 0 25 5 -8 9 -22 9 -30z m35 -128 c14 -60 26 -115 25 -123 0 -8 -14 38 -29
101 -31 122 -32 130 -26 130 2 0 16 -49 30 -108z m50 -251 c5 -55 5 -55 -9 14
-15 78 -18 116 -5 71 5 -15 11 -53 14 -85z m13 -98 c-3 -10 -5 -4 -5 12 0 17
2 24 5 18 2 -7 2 -21 0 -30z"/>
<path d="M3423 6339 c-107 -12 -252 -45 -356 -79 -129 -43 -355 -157 -466
-237 -463 -333 -741 -867 -741 -1426 0 -321 136 -791 410 -1417 80 -182 323
-670 428 -857 l79 -142 -61 -5 c-856 -80 -1471 -189 -2069 -368 -134 -40 -138
-41 -152 -22 -15 19 -15 19 -9 -1 3 -11 -5 -2 -20 20 -28 43 -33 60 -14 49 7
-4 8 -3 4 5 -4 6 -11 9 -16 6 -12 -8 -33 33 -26 51 3 8 2 12 -3 9 -5 -3 -12
-1 -16 5 -3 5 0 10 7 11 7 0 4 4 -7 9 -11 5 -14 9 -8 9 8 1 2 24 -19 66 -18
35 -34 63 -36 61 -2 -2 9 -27 23 -56 14 -29 25 -54 22 -56 -8 -8 -59 114 -53
125 4 6 2 10 -4 9 -12 -3 -99 185 -114 242 -7 28 10 -8 56 -118 17 -40 32 -71
34 -70 2 2 -17 53 -41 112 -25 60 -66 175 -91 255 -61 195 -65 205 -59 161 5
-32 4 -33 -5 -10 -6 13 -9 34 -6 46 3 12 -5 71 -19 130 -22 101 -60 345 -68
439 -2 22 -4 -710 -5 -1627 l-2 -1668 3585 0 3585 0 -1 1668 c-2 1704 -1 1678
-32 1392 -4 -38 -4 -46 2 -25 8 27 9 28 9 5 0 -14 -4 -36 -8 -50 -7 -21 -8
-22 -10 -5 -2 18 -43 -154 -55 -230 -4 -24 -4 -26 4 -10 12 25 12 1 1 -35 -7
-21 -8 -22 -10 -5 -1 13 -7 6 -15 -20 -6 -22 -8 -43 -3 -46 11 -7 -17 -98 -35
-112 -12 -10 -36 -72 -64 -167 -4 -13 -4 -13 6 0 6 8 11 12 11 8 0 -15 -73
-189 -77 -184 -3 2 1 14 7 26 6 12 9 24 7 26 -8 8 -42 -89 -39 -108 2 -12 -3
-18 -15 -18 -11 0 -14 -3 -7 -8 8 -5 0 -30 -27 -82 -21 -41 -38 -71 -39 -67 0
5 5 17 10 28 6 10 8 19 6 19 -3 0 -12 -13 -21 -29 -11 -23 -12 -31 -2 -34 7
-3 5 -6 -5 -6 -11 -1 -15 -6 -12 -16 4 -9 -5 -33 -20 -55 -14 -22 -26 -44 -26
-50 0 -5 -6 -10 -14 -10 -8 0 -18 -5 -22 -12 -4 -7 -3 -8 4 -4 7 4 12 4 12 -1
0 -14 -14 -29 -32 -36 -10 -3 -18 -12 -18 -19 0 -9 3 -8 10 2 19 29 10 0 -10
-32 -11 -18 -20 -26 -20 -18 0 13 -2 13 -9 1 -5 -8 -7 -21 -4 -30 4 -14 3 -14
-6 -1 -9 13 -11 13 -12 0 -1 -8 -1 -22 0 -30 2 -13 1 -13 -8 0 -10 13 -11 13
-12 0 -1 -8 -1 -18 0 -23 0 -4 -13 -26 -30 -50 -19 -26 -30 -35 -27 -22 1 11
8 23 13 27 6 5 4 8 -4 8 -11 0 -9 4 4 14 11 8 24 12 29 8 5 -3 7 2 3 10 -3 9
5 31 17 49 12 19 30 48 38 64 8 17 35 63 58 103 25 43 39 76 34 82 -5 4 -101
29 -214 54 -580 129 -1207 214 -1862 252 -65 4 -118 9 -118 12 0 3 40 80 89
171 482 898 791 1763 791 2210 0 798 -557 1511 -1331 1705 -202 51 -441 68
-636 45z m422 -878 c211 -56 392 -187 515 -373 190 -286 190 -670 0 -956 -123
-186 -301 -315 -515 -373 -64 -18 -108 -22 -220 -22 -112 0 -156 4 -220 22
-325 88 -563 335 -640 663 -23 97 -23 279 0 376 61 262 232 481 470 599 182
91 413 115 610 64z m-3828 -2358 c-3 -10 -5 -4 -5 12 0 17 2 24 5 18 2 -7 2
-21 0 -30z m7140 -20 c-3 -10 -5 -2 -5 17 0 19 2 27 5 18 2 -10 2 -26 0 -35z
m-7124 -68 c4 -34 3 -42 -3 -25 -8 25 -13 87 -6 79 2 -2 6 -26 9 -54z m15 -91
c-3 -14 -5 -12 -10 9 -3 19 -2 25 4 19 6 -6 8 -18 6 -28z m7071 -51 c-10 -48
-19 -91 -19 -97 0 -5 -3 -7 -6 -3 -8 8 30 187 40 187 2 0 -5 -39 -15 -87z
m-7051 -43 c0 -22 -1 -22 -8 5 -4 17 -8 39 -8 50 0 16 2 15 8 -5 4 -14 8 -36
8 -50z m21 -80 c0 -9 -4 -8 -9 5 -5 11 -9 27 -9 35 0 9 4 8 9 -5 5 -11 9 -27
9 -35z m6978 -92 c-3 -8 -6 -5 -6 6 -1 11 2 17 5 13 3 -3 4 -12 1 -19z m-6901
-185 c-5 -5 -36 86 -35 101 0 6 9 -13 20 -43 10 -30 17 -56 15 -58z m6844 2
c-16 -47 -23 -40 -8 8 6 20 13 35 16 33 2 -3 -1 -21 -8 -41z m-6812 -90 c0 -5
-6 4 -13 20 -8 17 -14 37 -14 45 0 8 7 -1 14 -20 7 -19 13 -39 13 -45z m6782
8 c-11 -17 -11 -17 -6 0 3 10 6 24 7 30 0 9 2 9 5 0 3 -7 0 -20 -6 -30z m-99
-246 c-10 -9 -11 -8 -5 6 3 10 9 15 12 12 3 -3 0 -11 -7 -18z m-6413 -412 c-3
-3 -9 2 -12 12 -6 14 -5 15 5 6 7 -7 10 -15 7 -18z m40 -70 c-3 -3 -9 2 -12
12 -6 14 -5 15 5 6 7 -7 10 -15 7 -18z m39 -31 c-3 -3 -12 -4 -19 -1 -8 3 -5
6 6 6 11 1 17 -2 13 -5z m83 -120 c0 -8 -19 -13 -24 -6 -3 5 1 9 9 9 8 0 15
-2 15 -3z m5850 -42 c0 -5 -9 -19 -20 -32 -11 -13 -20 -27 -20 -32 0 -4 -5 -8
-11 -8 -6 0 2 18 18 40 30 42 33 45 33 32z m-5770 -83 c0 -6 -4 -7 -10 -4 -5
3 -10 11 -10 16 0 6 5 7 10 4 6 -3 10 -11 10 -16z m5690 -29 c-12 -23 -16 -24
-26 -8 -4 6 -3 8 3 5 6 -4 13 0 17 8 3 8 8 15 11 15 3 0 1 -9 -5 -20z m-70
-83 c0 -2 -10 -12 -22 -23 l-23 -19 19 23 c18 21 26 27 26 19z m-5495 -37 c3
-5 1 -10 -4 -10 -6 0 -11 5 -11 10 0 6 2 10 4 10 3 0 8 -4 11 -10z m5435 -34
c0 -2 -8 -10 -17 -17 -16 -13 -17 -12 -4 4 13 16 21 21 21 13z m-40 -46 c0 -5
-10 -15 -22 -21 l-23 -12 20 21 c23 24 25 25 25 12z m-5306 -29 c-2 -3 -12 3
-22 13 -16 17 -16 18 5 5 12 -7 20 -15 17 -18z m5206 -74 c0 -2 -17 -19 -37
-38 l-38 -34 34 38 c33 34 41 42 41 34z m-5000 -131 c0 -5 -7 -3 -15 4 -8 7
-12 17 -9 22 7 10 24 -9 24 -26z m4880 10 c0 -2 -7 -9 -15 -16 -13 -11 -14
-10 -9 4 5 14 24 23 24 12z m-4845 -36 c10 -11 16 -20 13 -20 -3 0 -13 9 -23
20 -10 11 -16 20 -13 20 3 0 13 -9 23 -20z m4805 6 c0 -2 -8 -10 -17 -17 -16
-13 -17 -12 -4 4 13 16 21 21 21 13z m-60 -54 c0 -4 -10 -13 -22 -21 -23 -14
-23 -14 -4 8 20 22 26 25 26 13z m-50 -47 c0 -2 -10 -9 -22 -15 -22 -11 -22
-10 -4 4 21 17 26 19 26 11z m-4525 -53 c-3 -3 -11 0 -18 7 -9 10 -8 11 6 5
10 -3 15 -9 12 -12z m4470 8 c-3 -5 -12 -10 -18 -10 -7 0 -6 4 3 10 19 12 23
12 15 0z m-125 -94 c0 -2 -7 -7 -16 -10 -8 -3 -12 -2 -9 4 6 10 25 14 25 6z
m-80 -50 c0 -2 -8 -10 -17 -17 -16 -13 -17 -12 -4 4 13 16 21 21 21 13z m-45
-36 c-3 -5 -12 -10 -18 -10 -7 0 -6 4 3 10 19 12 23 12 15 0z m-85 -55 c0 -2
-10 -9 -22 -15 -22 -11 -22 -10 -4 4 21 17 26 19 26 11z m-3759 -32 c13 -17
13 -17 -6 -3 -11 8 -22 16 -24 17 -2 2 0 3 6 3 6 0 17 -8 24 -17z m3709 3 c0
-5 -69 -46 -78 -46 -6 1 69 50 76 50 1 0 2 -2 2 -4z m-145 -86 c-3 -5 -12 -10
-18 -10 -7 0 -6 4 3 10 19 12 23 12 15 0z m-75 -40 c-8 -5 -19 -10 -25 -10 -5
0 -3 5 5 10 8 5 20 10 25 10 6 0 3 -5 -5 -10z m-40 -15 c0 -2 -10 -9 -22 -15
-22 -11 -22 -10 -4 4 21 17 26 19 26 11z m-94 -50 c-11 -8 -25 -15 -30 -15 -6
1 0 7 14 15 32 19 40 18 16 0z m-66 -30 c-14 -8 -29 -14 -35 -14 -5 0 1 6 15
14 14 8 30 14 35 14 6 0 -1 -6 -15 -14z m-2845 -13 c-3 -3 -11 0 -18 7 -9 10
-8 11 6 5 10 -3 15 -9 12 -12z m62 -17 c0 -8 -4 -12 -9 -9 -5 3 -6 10 -3 15 9
13 12 11 12 -6z m2688 -10 c-27 -13 -57 -24 -65 -24 -8 0 10 11 40 24 71 30
90 30 25 0z m-2638 -10 c0 -8 -4 -12 -9 -9 -5 3 -6 10 -3 15 9 13 12 11 12 -6z
m57 -24 c4 -5 -3 -7 -14 -4 -23 6 -26 13 -6 13 8 0 17 -4 20 -9z m2401 -30
c-6 -5 -21 -11 -35 -15 -21 -5 -20 -3 5 9 35 17 42 18 30 6z m-122 -36 c0 -6
-7 -11 -16 -11 -16 -2 -16 -1 -1 3 14 4 15 7 3 15 -11 7 -11 9 -1 6 8 -2 14
-8 15 -13z m-2038 -15 c3 -6 -1 -7 -9 -4 -18 7 -21 14 -7 14 6 0 13 -4 16 -10z
m1955 -14 c0 -2 -9 -6 -20 -9 -11 -3 -18 -1 -14 4 5 9 34 13 34 5z m-1845 -16
c3 -6 -1 -7 -9 -4 -18 7 -21 14 -7 14 6 0 13 -4 16 -10z m1755 -5 c0 -2 -6 -5
-13 -8 -8 -3 -14 1 -14 8 0 7 6 11 14 8 7 -3 13 -6 13 -8z m-50 -15 c-8 -5
-24 -9 -35 -9 -16 1 -16 2 5 9 35 11 48 11 30 0z m-1603 -6 c-3 -3 -12 -4 -19
-1 -8 3 -5 6 6 6 11 1 17 -2 13 -5z m118 -14 c-3 -5 -12 -10 -18 -10 -7 0 -6
4 3 10 19 12 23 12 15 0z m59 -18 c3 -5 -8 -6 -25 -4 -16 2 -29 6 -29 8 0 8
49 4 54 -4z m1107 -20 c-7 -2 -18 1 -23 6 -8 8 -4 9 13 5 13 -4 18 -8 10 -11z
m76 12 c-3 -3 -12 -4 -19 -1 -8 3 -5 6 6 6 11 1 17 -2 13 -5z"/>
<path d="M864 5968 l-29 -33 33 29 c17 17 32 31 32 33 0 8 -8 1 -36 -29z"/>
<path d="M6300 5965 c19 -19 36 -35 38 -35 8 0 -53 69 -62 69 -6 1 5 -15 24
-34z"/>
<path d="M6395 5850 c10 -11 20 -20 23 -20 3 0 -3 9 -13 20 -10 11 -20 20 -23
20 -3 0 3 -9 13 -20z"/>
<path d="M669 5723 c-13 -16 -12 -17 4 -4 16 13 21 21 13 21 -2 0 -10 -8 -17
-17z"/>
<path d="M6585 5593 c15 -24 30 -43 32 -43 7 0 -31 61 -46 73 -8 7 -2 -7 14
-30z"/>
<path d="M500 5470 c-6 -11 -8 -20 -6 -20 3 0 10 9 16 20 6 11 8 20 6 20 -3 0
-10 -9 -16 -20z"/>
<path d="M445 5379 c-4 -6 -5 -12 -2 -15 2 -3 7 2 10 11 7 17 1 20 -8 4z"/>
<path d="M420 5330 c-6 -11 -8 -20 -6 -20 3 0 10 9 16 20 6 11 8 20 6 20 -3 0
-10 -9 -16 -20z"/>
<path d="M6846 5127 c3 -10 9 -15 12 -12 3 3 0 11 -7 18 -10 9 -11 8 -5 -6z"/>
<path d="M6861 5095 c0 -5 6 -21 14 -35 8 -14 14 -20 14 -15 0 6 -6 21 -14 35
-8 14 -14 21 -14 15z"/>
<path d="M6893 5018 c3 -7 20 -50 38 -96 18 -45 34 -80 36 -78 5 5 -67 186
-74 186 -3 0 -3 -6 0 -12z"/>
<path d="M7036 2618 c-3 -7 -9 -29 -15 -48 -7 -19 -7 -30 -2 -25 10 11 32 85
25 85 -3 0 -6 -6 -8 -12z"/>
<path d="M6926 2300 c-22 -56 -19 -65 5 -11 11 24 18 46 15 48 -2 2 -11 -14
-20 -37z"/>
<path d="M6817 2055 c-24 -50 -20 -58 4 -12 11 22 19 41 17 43 -3 2 -12 -12
-21 -31z"/>
<path d="M6710 1850 c-6 -11 -8 -20 -6 -20 3 0 10 9 16 20 6 11 8 20 6 20 -3
0 -10 -9 -16 -20z"/>
<path d="M460 1831 c0 -6 4 -13 10 -16 6 -3 7 1 4 9 -7 18 -14 21 -14 7z"/>
<path d="M6625 1709 c-4 -6 -5 -12 -2 -15 2 -3 7 2 10 11 7 17 1 20 -8 4z"/>
</g>
</svg>
